<svg width="574" height="123" viewBox="0 0 574 123" fill="none" xmlns="http://www.w3.org/2000/svg">
<path fill-rule="evenodd" clip-rule="evenodd" d="M43.7363 7C24.8281 7 9.5 22.3281 9.5 41.2363C9.5 57.9849 21.5268 71.9246 37.4154 74.8902L64.1524 18.3074V47.204H91.1645H118.286C118.627 45.266 118.805 43.2719 118.805 41.2363C118.805 22.3281 103.477 7 84.5685 7H43.7363Z" fill="white"/>
<path fill-rule="evenodd" clip-rule="evenodd" d="M10.0183 75.4723C9.67766 77.4103 9.5 79.4044 9.5 81.4401C9.5 100.348 24.8281 115.676 43.7363 115.676H84.5685C103.477 115.676 118.805 100.348 118.805 81.4401C118.805 64.6914 106.778 50.7517 90.8893 47.7861L64.1524 104.369V75.4723H37.1403H10.0183Z" fill="white"/>
<path d="M161.215 79.8379V70.3397H188.692C189.408 70.3397 189.992 70.1324 190.444 69.7178C190.897 69.2655 191.123 68.6436 191.123 67.8521C191.123 67.0605 190.897 66.4386 190.444 65.9863C189.992 65.534 189.408 65.3079 188.692 65.3079H172.522C170.826 65.3079 169.243 65.0441 167.773 64.5164C166.341 63.951 165.097 63.1972 164.042 62.2549C163.024 61.2749 162.214 60.1065 161.61 58.7496C161.045 57.3927 160.762 55.8851 160.762 54.2266C160.762 52.5682 161.045 51.0606 161.61 49.7037C162.214 48.3091 163.024 47.1218 164.042 46.1419C165.097 45.1619 166.341 44.4081 167.773 43.8804C169.243 43.3527 170.826 43.0889 172.522 43.0889H200.451V52.5305H172.974C172.258 52.5305 171.674 52.7378 171.222 53.1524C170.807 53.567 170.6 54.1701 170.6 54.9616C170.6 55.7155 170.807 56.3185 171.222 56.7708C171.674 57.2231 172.258 57.4493 172.974 57.4493H189.144C190.878 57.4493 192.461 57.7319 193.893 58.2973C195.325 58.825 196.569 59.5788 197.625 60.5588C198.68 61.5388 199.49 62.726 200.056 64.1206C200.659 65.4775 200.96 66.9663 200.96 68.587C200.96 70.2831 200.659 71.8285 200.056 73.2231C199.49 74.58 198.68 75.7672 197.625 76.7849C196.569 77.7649 195.325 78.5187 193.893 79.0464C192.461 79.5741 190.878 79.8379 189.144 79.8379H161.215ZM234.203 65.3079V57.4493H255.914V65.3079H234.203ZM221.03 79.8379V43.0889H256.309V52.5305H230.924V70.3397H256.366V79.8379H221.03ZM285.627 79.8379V65.0252C285.627 61.8214 283.988 60.2196 280.709 60.2196H271.267V79.8379H261.769V51.6259H280.935C285.609 51.6259 289.133 52.7944 291.507 55.1312C293.882 57.4681 295.069 60.7849 295.069 65.0817V79.8379H285.627ZM310.203 79.8379C306.773 79.8379 304.192 78.9521 302.458 77.1807C300.762 75.3715 299.914 72.8085 299.914 69.4916V43.5977H309.299V51.6259H320.606V59.428H309.299V68.7566C309.299 70.9804 310.411 72.0923 312.634 72.0923H320.323V79.8379H310.203ZM338.676 79.8379C336.49 79.8379 334.474 79.4987 332.627 78.8202C330.78 78.1418 329.178 77.1807 327.821 75.9368C326.464 74.693 325.409 73.2042 324.655 71.4704C323.901 69.7366 323.524 67.8144 323.524 65.7037C323.524 63.6306 323.901 61.7272 324.655 59.9934C325.409 58.2596 326.464 56.7708 327.821 55.527C329.178 54.2832 330.78 53.3221 332.627 52.6436C334.474 51.9652 336.49 51.6259 338.676 51.6259H345.856C347.477 51.6259 348.891 51.8521 350.097 52.3044C351.303 52.7567 352.302 53.3786 353.093 54.1701C353.922 54.9616 354.525 55.9228 354.902 57.0535C355.317 58.1465 355.524 59.3527 355.524 60.6719C355.524 63.1595 354.808 65.0252 353.376 66.269C351.944 67.5128 349.588 68.1347 346.309 68.1347H336.245V62.9899H344.33C345.8 62.9899 346.535 62.3303 346.535 61.0111C346.535 59.6165 345.819 58.9192 344.386 58.9192H338.62C336.924 58.9192 335.548 59.5034 334.493 60.6719C333.437 61.8403 332.909 63.4987 332.909 65.6471C332.909 67.7955 333.437 69.4162 334.493 70.5093C335.548 71.5646 336.924 72.0923 338.62 72.0923H353.998V79.8379H338.676ZM359.653 79.8379V65.0817C359.653 60.7849 360.84 57.4681 363.215 55.1312C365.589 52.7944 369.094 51.6259 373.731 51.6259H381.646V60.2196H373.957C370.715 60.2196 369.094 61.8214 369.094 65.0252V79.8379H359.653ZM384.277 89.6753V65.0817C384.277 60.7472 385.446 57.4304 387.783 55.1312C390.157 52.7944 393.7 51.6259 398.412 51.6259H403.387C405.573 51.6259 407.589 51.9652 409.436 52.6436C411.321 53.2844 412.942 54.2266 414.298 55.4705C415.655 56.7143 416.711 58.2596 417.464 60.1065C418.218 61.9157 418.595 63.9887 418.595 66.3256C418.595 70.547 417.314 73.9015 414.751 76.3891C412.188 78.8768 408.381 80.1206 403.33 80.1206C402.124 80.1206 400.918 80.0452 399.712 79.8944C398.543 79.7814 397.469 79.5929 396.489 79.3291V70.792C397.469 71.0558 398.468 71.2631 399.486 71.4139C400.503 71.527 401.446 71.5835 402.313 71.5835C404.499 71.5835 406.176 71.1877 407.344 70.3962C408.551 69.567 409.154 68.1159 409.154 66.0429C409.154 64.0075 408.607 62.5376 407.514 61.633C406.459 60.7284 405.083 60.2761 403.387 60.2761H398.638C395.359 60.2761 393.719 61.878 393.719 65.0817V89.6753H384.277ZM422.65 79.8379V65.0817C422.65 60.7849 423.837 57.4681 426.211 55.1312C428.586 52.7944 432.091 51.6259 436.727 51.6259H444.642V60.2196H436.953C433.712 60.2196 432.091 61.8214 432.091 65.0252V79.8379H422.65ZM448.274 79.8379V51.6259H457.716V79.8379H448.274ZM452.402 48.8556C451.158 48.8556 450.121 48.4976 449.292 47.7814C448.501 47.0276 448.105 46.0099 448.105 44.7284C448.105 43.5223 448.501 42.5612 449.292 41.8451C450.121 41.0912 451.158 40.7143 452.402 40.7143H453.702C454.946 40.7143 455.964 41.0912 456.755 41.8451C457.547 42.5612 457.942 43.5223 457.942 44.7284C457.942 46.0099 457.547 47.0276 456.755 47.7814C455.964 48.4976 454.946 48.8556 453.702 48.8556H452.402ZM462.161 79.8379V72.0923H482.062C483.382 72.0923 484.041 71.4893 484.041 70.2831C484.041 69.1147 483.382 68.5305 482.062 68.5305H470.981C469.549 68.5305 468.267 68.3232 467.137 67.9086C466.006 67.4563 465.045 66.8532 464.253 66.0994C463.462 65.3456 462.859 64.4598 462.444 63.4422C462.029 62.3868 461.822 61.2561 461.822 60.05C461.822 58.7685 462.048 57.6189 462.501 56.6012C462.953 55.5458 463.594 54.6601 464.423 53.944C465.252 53.1901 466.213 52.6248 467.306 52.2479C468.399 51.8333 469.605 51.6259 470.925 51.6259H491.674V59.3715H472.677C471.396 59.3715 470.755 59.9557 470.755 61.1242C470.755 62.2926 471.396 62.8768 472.677 62.8768H483.985C486.887 62.8768 489.129 63.6683 490.713 65.2514C492.296 66.8344 493.087 68.8509 493.087 71.3008C493.087 72.62 492.861 73.8073 492.409 74.8626C491.956 75.8803 491.316 76.766 490.486 77.5199C489.695 78.2737 488.734 78.8579 487.603 79.2725C486.51 79.6494 485.304 79.8379 483.985 79.8379H462.161ZM511.158 79.8379C508.972 79.8379 506.956 79.4987 505.109 78.8202C503.262 78.1418 501.66 77.1807 500.303 75.9368C498.946 74.693 497.891 73.2042 497.137 71.4704C496.383 69.7366 496.006 67.8144 496.006 65.7037C496.006 63.6306 496.383 61.7272 497.137 59.9934C497.891 58.2596 498.946 56.7708 500.303 55.527C501.66 54.2832 503.262 53.3221 505.109 52.6436C506.956 51.9652 508.972 51.6259 511.158 51.6259H518.338C519.959 51.6259 521.372 51.8521 522.579 52.3044C523.785 52.7567 524.784 53.3786 525.575 54.1701C526.404 54.9616 527.007 55.9228 527.384 57.0535C527.799 58.1465 528.006 59.3527 528.006 60.6719C528.006 63.1595 527.29 65.0252 525.858 66.269C524.425 67.5128 522.07 68.1347 518.791 68.1347H508.727V62.9899H516.812C518.282 62.9899 519.017 62.3303 519.017 61.0111C519.017 59.6165 518.301 58.9192 516.868 58.9192H511.102C509.405 58.9192 508.03 59.5034 506.974 60.6719C505.919 61.8403 505.391 63.4987 505.391 65.6471C505.391 67.7955 505.919 69.4162 506.974 70.5093C508.03 71.5646 509.405 72.0923 511.102 72.0923H526.48V79.8379H511.158ZM531.287 79.8379V72.0923H551.188C552.507 72.0923 553.166 71.4893 553.166 70.2831C553.166 69.1147 552.507 68.5305 551.188 68.5305H540.106C538.674 68.5305 537.393 68.3232 536.262 67.9086C535.131 67.4563 534.17 66.8532 533.379 66.0994C532.587 65.3456 531.984 64.4598 531.569 63.4422C531.155 62.3868 530.947 61.2561 530.947 60.05C530.947 58.7685 531.174 57.6189 531.626 56.6012C532.078 55.5458 532.719 54.6601 533.548 53.944C534.377 53.1901 535.338 52.6248 536.431 52.2479C537.525 51.8333 538.731 51.6259 540.05 51.6259H560.799V59.3715H541.803C540.521 59.3715 539.88 59.9557 539.88 61.1242C539.88 62.2926 540.521 62.8768 541.803 62.8768H553.11C556.012 62.8768 558.255 63.6683 559.838 65.2514C561.421 66.8344 562.212 68.8509 562.212 71.3008C562.212 72.62 561.986 73.8073 561.534 74.8626C561.082 75.8803 560.441 76.766 559.612 77.5199C558.82 78.2737 557.859 78.8579 556.728 79.2725C555.635 79.6494 554.429 79.8379 553.11 79.8379H531.287Z" fill="white"/>
</svg>
